<?xml version="1.0" standalone="no"?>
<!DOCTYPE svg PUBLIC "-//W3C//DTD SVG 20010904//EN"
 "http://www.w3.org/TR/2001/REC-SVG-20010904/DTD/svg10.dtd">
<svg version="1.0" xmlns="http://www.w3.org/2000/svg"
 width="520.000000pt" height="520.000000pt" viewBox="0 0 520.000000 520.000000"
 preserveAspectRatio="xMidYMid meet">
<metadata>
Created by potrace 1.14, written by Peter Selinger 2001-2017
</metadata>
<g transform="translate(0.000000,520.000000) scale(0.100000,-0.100000)"
fill="#000000" stroke="none">
<path d="M2664 4583 c-65 -22 -108 -45 -128 -67 -10 -12 -23 -20 -28 -18 -5 1
-7 -1 -4 -6 3 -5 -6 -24 -19 -42 -13 -18 -22 -37 -19 -41 3 -5 0 -9 -6 -9 -6
0 -8 -4 -5 -10 3 -5 1 -10 -5 -10 -6 0 -9 -4 -5 -9 3 -5 1 -12 -5 -16 -6 -4
-8 -11 -4 -16 3 -5 1 -16 -5 -23 -7 -8 -11 -18 -10 -22 1 -5 0 -12 -1 -16 -1
-5 -4 -12 -5 -18 -1 -5 -3 -11 -4 -12 -2 -2 -5 -14 -7 -28 -7 -35 -50 -105
-88 -143 -43 -41 -88 -75 -100 -75 -5 0 -12 -5 -15 -10 -14 -23 -131 -73 -158
-68 -77 15 -130 30 -149 43 -15 9 -24 11 -29 4 -3 -6 -13 -11 -22 -11 -9 0
-13 3 -10 7 11 11 -13 31 -31 26 -10 -2 -30 2 -46 11 -39 20 -99 14 -140 -15
-19 -13 -34 -26 -33 -29 0 -3 -3 -15 -7 -28 -7 -21 -34 -27 -46 -10 -3 4 -22
8 -43 10 -20 1 -37 6 -37 10 0 4 -6 5 -14 2 -8 -3 -17 -1 -21 5 -21 34 -73
-12 -113 -100 -29 -63 -44 -99 -47 -109 -13 -55 -26 -70 -65 -75 -3 0 -11 -4
-17 -8 -7 -5 -13 -5 -13 0 0 4 -5 0 -11 -10 -6 -9 -14 -15 -20 -12 -5 4 -9 -1
-9 -9 0 -9 -4 -16 -8 -16 -4 0 -9 -13 -10 -30 -1 -16 -7 -42 -13 -57 -17 -45
-19 -63 -7 -91 17 -42 17 -95 0 -124 -9 -16 -20 -28 -24 -28 -20 0 -5 -30 21
-41 23 -11 28 -19 28 -46 -1 -18 -5 -33 -9 -33 -4 0 -8 -6 -8 -14 0 -8 -9 -18
-20 -21 -24 -8 -35 -27 -44 -77 -4 -21 -11 -38 -16 -38 -4 0 -7 -15 -6 -32 1
-18 -3 -39 -9 -47 -8 -12 -7 -13 5 -6 13 8 13 7 0 -11 -8 -10 -19 -22 -25 -26
-5 -4 -7 -8 -2 -8 4 0 0 -14 -9 -31 -8 -17 -17 -38 -19 -47 -7 -38 -10 -47
-17 -52 -13 -10 -20 -78 -9 -84 6 -4 7 -15 2 -29 -5 -12 -9 -24 -9 -27 -4 -49
-39 -89 -63 -74 -13 8 -56 -39 -71 -76 -22 -55 -21 -80 6 -103 18 -16 23 -26
16 -37 -5 -8 -6 -18 -3 -24 4 -5 -1 -7 -10 -3 -10 4 -16 2 -14 -6 1 -7 -10
-12 -28 -12 -29 0 -41 -10 -99 -77 -8 -9 -12 -19 -8 -22 3 -3 1 -6 -5 -6 -6 0
-9 -9 -6 -19 3 -14 -18 -42 -79 -103 -45 -46 -101 -106 -123 -133 -22 -28 -61
-71 -88 -98 -26 -26 -58 -64 -71 -85 -14 -20 -35 -49 -48 -64 -35 -41 -51 -60
-83 -103 -16 -22 -32 -42 -36 -45 -3 -3 -14 -26 -25 -52 -10 -27 -22 -48 -26
-48 -4 0 -5 -7 -2 -15 4 -8 1 -15 -5 -15 -6 0 -11 -7 -11 -15 0 -8 -4 -15 -9
-15 -10 0 -8 -189 3 -230 3 -14 9 -38 12 -55 6 -36 55 -149 66 -153 4 -2 8 -9
8 -16 0 -7 9 -24 21 -37 12 -13 26 -31 33 -39 18 -25 68 -55 111 -68 109 -30
152 -33 295 -17 108 13 135 17 153 26 9 6 17 8 17 5 0 -2 25 4 55 15 30 10 60
19 66 19 6 0 25 6 42 14 18 8 48 19 67 24 19 6 73 24 120 42 47 17 90 33 95
34 41 11 228 98 237 111 5 6 8 6 8 0 0 -5 5 -4 12 3 7 7 20 12 30 12 10 0 18
4 18 9 0 5 18 16 40 25 22 9 40 21 40 27 0 5 4 8 9 4 5 -3 16 2 24 10 9 8 19
15 24 15 8 0 55 36 101 78 14 12 31 22 39 22 8 0 31 17 52 37 20 21 42 40 47
42 5 2 16 6 24 9 8 3 23 16 33 29 10 13 23 20 29 17 7 -4 8 -2 4 4 -4 7 -2 12
3 12 6 0 11 7 11 16 0 8 5 12 10 9 6 -3 11 2 12 12 0 10 2 24 2 31 1 7 6 16
11 20 15 10 50 66 47 75 -1 4 2 7 6 7 8 0 53 90 107 215 10 22 26 58 36 79 11
22 19 45 19 52 0 7 3 14 8 16 6 3 36 55 66 115 6 13 14 23 19 23 4 0 7 7 7 15
0 8 3 15 8 15 4 0 18 17 32 37 43 64 103 133 116 133 11 0 -4 -104 -20 -136
-9 -18 -16 -55 -15 -90 0 -32 0 -66 -1 -74 -2 -74 9 -211 18 -223 7 -7 9 -17
5 -20 -3 -4 -1 -7 6 -7 7 0 10 -4 7 -9 -4 -5 -2 -11 3 -13 5 -1 11 -10 13 -18
14 -66 135 -184 245 -240 48 -25 90 -47 93 -51 3 -3 25 -16 50 -30 25 -13 47
-27 50 -31 3 -3 18 -10 33 -13 15 -4 27 -11 27 -15 0 -5 21 -19 48 -31 26 -13
52 -27 57 -32 6 -4 25 -17 42 -27 29 -18 32 -24 28 -55 -3 -25 -1 -34 7 -29 7
5 8 3 4 -5 -14 -22 -8 -77 10 -112 10 -19 19 -38 20 -44 1 -5 3 -12 4 -15 1
-3 3 -16 6 -30 6 -36 59 -142 86 -171 36 -40 98 -71 149 -74 26 -1 52 -6 58
-9 10 -6 22 -9 101 -21 150 -23 406 -24 580 -1 19 3 70 7 113 11 42 3 94 8
115 10 20 3 64 7 97 10 33 3 71 8 85 12 14 3 34 7 45 8 11 0 34 4 50 8 17 4
46 9 65 13 19 3 40 7 45 8 6 1 15 4 20 7 6 4 18 5 28 4 9 -2 17 1 17 6 0 5 3
8 8 7 15 -4 77 15 84 26 6 8 8 8 8 -1 0 -9 7 -10 25 -3 14 5 25 7 25 4 0 -4 7
-1 15 6 8 7 15 10 15 6 0 -10 62 24 88 48 43 38 50 65 51 193 2 107 -1 131
-24 198 -30 89 -86 182 -118 195 -12 5 -33 20 -46 34 -13 14 -27 26 -33 26 -8
0 -74 29 -156 69 -18 9 -42 24 -52 34 -11 9 -22 17 -26 17 -13 0 -33 35 -34
58 0 12 -6 22 -13 22 -7 0 -19 9 -27 19 -7 11 -17 18 -22 15 -4 -3 -8 2 -8 11
0 9 -4 13 -10 10 -5 -3 -10 1 -10 9 0 9 -5 16 -11 16 -5 0 -7 5 -4 10 3 6 0
10 -8 10 -8 0 -18 7 -21 16 -3 8 -11 12 -17 8 -8 -4 -9 -3 -5 4 4 7 3 12 -2
12 -10 0 -49 80 -44 92 1 5 -4 7 -10 6 -7 -2 -14 7 -16 20 -2 12 -10 22 -18
22 -8 0 -13 3 -11 8 4 6 -18 34 -25 32 -2 -1 -16 3 -31 9 -16 6 -33 11 -38 11
-5 0 -7 11 -3 25 3 14 2 25 -4 25 -5 0 -8 11 -7 25 2 14 -1 25 -5 25 -5 0 -12
16 -16 35 -3 19 -10 35 -15 35 -5 0 -9 6 -9 13 0 7 -9 19 -19 27 -11 7 -17 18
-14 24 4 6 -1 5 -10 -2 -14 -12 -16 -11 -11 10 14 59 16 110 4 103 -7 -4 -10
-2 -9 6 5 26 -21 94 -46 123 -29 34 -29 35 -12 61 23 33 2 147 -28 159 -12 4
-13 18 -8 67 5 52 4 61 -8 54 -11 -6 -12 -5 -1 6 21 22 15 77 -12 104 -18 18
-25 37 -27 72 -3 47 -16 83 -31 83 -5 0 -8 -10 -9 -22 l0 -23 -11 23 c-11 23
-28 30 -28 11 0 -5 -4 -7 -10 -4 -5 3 -10 3 -10 -2 0 -4 -18 -28 -40 -53 -22
-25 -40 -42 -40 -39 0 4 -18 3 -39 -1 -38 -7 -40 -6 -57 32 -9 21 -23 43 -31
49 -7 6 -13 20 -13 30 0 10 -10 28 -22 40 -13 12 -16 19 -8 15 9 -5 9 -2 -2 7
-10 8 -14 18 -10 22 4 5 2 5 -4 2 -7 -4 -18 1 -25 10 -12 14 -12 16 1 8 10 -5
12 -5 5 3 -5 6 -19 12 -30 14 -11 1 -26 9 -34 16 -7 7 -21 10 -31 7 -10 -3
-21 -1 -24 4 -4 5 -30 9 -59 9 -78 0 -76 -2 -68 35 9 39 7 163 -3 197 -24 84
-66 181 -75 175 -4 -2 -8 8 -9 23 -3 37 -33 103 -58 127 -11 11 -36 52 -54 90
-18 39 -51 98 -72 133 -21 34 -38 67 -38 72 0 6 -4 10 -9 10 -5 0 -11 8 -15
18 -3 9 -14 29 -23 44 -19 28 -62 97 -121 194 -36 60 -104 134 -123 134 -5 0
-9 4 -9 9 0 14 -41 56 -69 71 -33 17 -72 18 -117 3z"/>
</g>
</svg>
